<?xml version="1.0" encoding="utf-8"?>
<!-- Generator: Adobe Illustrator 23.0.5, SVG Export Plug-In . SVG Version: 6.00 Build 0)  -->
<svg version="1.1" id="Layer_1" xmlns="http://www.w3.org/2000/svg" xmlns:xlink="http://www.w3.org/1999/xlink" x="0px" y="0px"
	 viewBox="0 0 862 81" style="enable-background:new 0 0 862 81;" xml:space="preserve">
<style type="text/css">
	.st0{fill:#ED1C24;}
	.st1{fill:#FFF200;}
	.st2{fill:#FEFCFC;}
	.st3{fill:#FEFBFB;}
	.st4{fill:#FEFDFD;}
	.st5{fill:#FCE4E5;}
	.st6{fill:#ED242C;}
	.st7{fill:#E92227;}
	.st8{font-family:'Exo2-ExtraBold';}
	.st9{font-size:57.3782px;}
</style>
<path class="st0" d="M422,81h431V0H503C458.26,0,422,36.26,422,81L422,81z"/>
<path class="st1" d="M431,81h431V0H512C467.26,0,431,36.26,431,81L431,81z"/>
<g>
	<path class="st0" d="M818.14,70.72H657.43c-4.73,0-8.38-4.18-7.74-8.87l6.03-44.1c0.53-3.87,3.83-6.75,7.74-6.75h160.36
		c4.71,0,8.35,4.14,7.75,8.81l-5.68,44.1C825.38,67.8,822.06,70.72,818.14,70.72z"/>
	<path class="st2" d="M771.06,14.69c2.05,0,4.1-0.01,6.16,0c5.41,0.02,9.66,3.9,10.29,9.27c0.31,2.65-0.36,5.18-0.67,7.76
		c-0.38,3.11-1.6,5.85-3.71,8.17c-0.33,0.37-0.24,0.63-0.02,0.99c0.8,1.32,1.25,2.76,1.47,4.29c0.06,0.43-0.03,0.58-0.47,0.57
		c-2.78-0.01-5.57-0.01-8.35,0c-0.33,0-0.54-0.12-0.75-0.36c-0.49-0.57-1.15-0.79-1.88-0.79c-3.99-0.01-7.97-0.02-11.96-0.03
		c-0.7,0-1.39,0.15-1.88,0.61c-0.58,0.55-1.22,0.58-1.93,0.58c-2.52-0.02-5.04-0.02-7.56,0c-0.7,0.01-0.77-0.18-0.52-0.8
		c0.71-1.69,1.67-3.22,2.91-4.56c0.23-0.24,0.42-0.41,0.18-0.81c-1.61-2.65-1.97-5.52-1.46-8.54c0.3-1.79,0.37-3.62,0.89-5.36
		c1.75-5.88,5.51-9.72,11.64-10.86C765.93,14.34,768.51,14.73,771.06,14.69z M768.17,35.64c0,0.02,0,0.03,0,0.05
		c0.94,0,1.87,0,2.81,0c0.94,0,1.87,0,2.81,0c2.22-0.01,3.72-1.21,4.11-3.41c0.33-1.9,0.6-3.81,0.83-5.73
		c0.22-1.85-0.88-3.03-2.75-3.04c-3.84-0.02-7.67-0.03-11.51-0.03c-1.85,0-3.52,1.27-3.86,3.08c-0.38,2.01-0.68,4.04-0.9,6.07
		c-0.21,1.92,0.82,2.99,2.75,3C764.36,35.65,766.27,35.64,768.17,35.64z"/>
	<path class="st3" d="M681.78,30.83c-1.87,2.01-2.57,4.44-3.31,6.83c-0.56,1.82-1.57,2.69-3.48,2.69c-1.29,0-2.58,0-3.87-0.03
		c-0.43-0.01-0.6,0.1-0.66,0.56c-0.18,1.42-0.44,2.83-0.62,4.25c-0.06,0.46-0.18,0.66-0.68,0.65c-2.7-0.02-5.39-0.02-8.09,0
		c-0.49,0-0.58-0.13-0.5-0.61c0.98-6.51,1.92-13.02,2.91-19.53c0.82-5.37,5.26-9.89,10.59-10.86c0.49-0.09,0.99-0.13,1.48-0.13
		c13.54-0.01,27.08,0,40.61-0.02c0.74,0,0.92,0.14,0.83,0.9c-0.26,2-0.41,4.02-0.62,6.02c-0.06,0.58-0.18,1.15-0.4,1.7
		c-0.26,0.64-0.66,0.93-1.4,0.93c-13.27-0.03-26.55-0.03-39.82-0.04c-1.25,0-1.91,0.61-2.1,1.88c-0.2,1.39-0.35,2.79-0.62,4.17
		c-0.12,0.62,0.07,0.67,0.59,0.66c2.78-0.03,5.57-0.03,8.35-0.04C681.19,30.83,681.43,30.83,681.78,30.83z"/>
	<path class="st4" d="M729.21,45.78c4.07-7.41,8.06-14.7,12.06-21.99c-0.32-0.2-0.59-0.13-0.84-0.13
		c-5.01-0.02-10.02-0.02-15.03-0.04c-0.73,0-1.46-0.02-2.19-0.07c-1.73-0.11-3.13-1.56-3.1-3.43c0.02-1.66,0.26-3.32,0.39-4.99
		c0.05-0.6,0.48-0.47,0.84-0.47c3.66,0,7.33-0.01,10.99,0c5.6,0.01,11.19,0.01,16.79,0.03c2.15,0.01,3.7,1.28,3.88,3.17
		c0.11,1.1-0.09,2.14-0.63,3.13c-3.58,6.54-7.14,13.09-10.7,19.64c-0.84,1.54-1.69,3.07-2.51,4.63c-0.2,0.38-0.43,0.54-0.88,0.54
		C735.33,45.77,732.37,45.78,729.21,45.78z"/>
	<path class="st2" d="M714.36,45.73c-1.2,0-2.4-0.03-3.6,0.01c-0.62,0.02-0.91-0.05-0.73-0.8c0.21-0.85,0.28-1.73,0.39-2.6
		c0.16-1.24-0.34-1.82-1.6-1.83c-1.11-0.01-2.23,0.02-3.34-0.01c-0.57-0.02-0.82,0.1-0.87,0.74c-0.11,1.28-0.35,2.55-0.51,3.83
		c-0.06,0.51-0.26,0.68-0.78,0.68c-2.49-0.03-4.98-0.02-7.47,0c-0.49,0-0.67-0.1-0.57-0.65c0.22-1.27,0.36-2.55,0.55-3.82
		c0.09-0.56,0.03-0.85-0.67-0.83c-1.55,0.03-3.1-0.02-4.65-0.06c-0.43-0.01-0.61,0.11-0.66,0.57c-0.14,1.31-0.37,2.61-0.52,3.91
		c-0.07,0.62-0.25,0.89-0.96,0.88c-2.4-0.05-4.81-0.04-7.21-0.01c-0.64,0.01-0.77-0.16-0.67-0.8c0.41-2.63,0.73-5.27,1.13-7.91
		c0.48-3.19,3.32-6.13,6.98-6.06c6.44,0.13,12.89,0.05,19.34,0.11c1.46,0.01,2.93-0.1,4.38,0.21c3.91,0.86,6.72,4.3,6.95,8.45
		c0.1,1.83-0.21,3.62-0.44,5.41c-0.06,0.51-0.32,0.58-0.77,0.58C716.82,45.71,715.59,45.73,714.36,45.73z"/>
	<path class="st3" d="M764.06,66.94c-2.37,0-4.75,0.13-7.11-0.03c-5.28-0.35-9.34-4.63-9.57-9.92c-0.09-2.1,0.36-4.13,0.61-6.19
		c0.06-0.5,0.33-0.52,0.72-0.52c2.58,0.01,5.16,0.02,7.74-0.01c0.52,0,0.67,0.15,0.58,0.66c-0.22,1.3-0.4,2.6-0.61,3.9
		c-0.34,2.08,0.67,3.3,2.75,3.31c3.78,0.02,7.56,0.04,11.34,0.05c2.32,0.01,3.82-1.34,4.14-3.67c0.16-1.22,0.37-2.43,0.52-3.65
		c0.05-0.44,0.23-0.6,0.67-0.59c2.64,0.01,5.28,0.01,7.91,0.01c0.25,0,0.56-0.06,0.48,0.39c-0.45,2.65-0.5,5.39-1.75,7.84
		c-2.75,5.4-6.99,8.52-13.23,8.53c-1.73,0-3.46,0-5.19,0C764.06,67.01,764.06,66.98,764.06,66.94z"/>
	<path class="st2" d="M801.79,67.08c-1.81-0.12-4.1,0.14-6.37-0.14c-5.41-0.66-9.08-4.78-9.17-10.24c-0.04-2.03,0.47-4,0.7-6.01
		c0.04-0.36,0.24-0.41,0.54-0.41c2.67,0,5.33,0.01,8,0c0.48,0,0.52,0.22,0.46,0.6c-0.2,1.36-0.42,2.72-0.58,4.08
		c-0.25,2.15,0.71,3.22,2.85,3.23c3.25,0.02,6.5,0.05,9.75,0.06c1.96,0.01,3.61-1.35,3.97-3.29c0.25-1.35,0.44-2.71,0.62-4.08
		c0.06-0.47,0.23-0.63,0.71-0.62c2.52,0.02,5.04,0.01,7.56,0.01c0.33,0,0.67-0.04,0.56,0.49c-0.43,2.21-0.52,4.48-1.19,6.64
		c-1.79,5.8-7.04,9.67-13.1,9.67C805.48,67.08,803.87,67.08,801.79,67.08z"/>
	<path class="st3" d="M717.42,66.89c2.26-4.04,4.45-7.97,6.64-11.9c0.78-1.4,1.58-2.8,2.36-4.21c0.16-0.28,0.27-0.56,0.69-0.56
		c3.04,0.01,6.08,0.01,9.12,0.01c0.08,0.38-0.16,0.6-0.3,0.84c-2.46,4.45-4.93,8.9-7.4,13.35c-0.95,1.71-2.39,2.59-4.36,2.58
		C721.97,66.99,719.77,67.04,717.42,66.89z"/>
	<path class="st3" d="M664.52,50.23c1.26,0,2.52,0.02,3.78-0.01c0.59-0.02,0.8,0.05,0.69,0.75c-0.65,4.19-1.23,8.39-1.85,12.59
		c-0.3,2.05-1.53,3.09-3.58,3.09c-1.76,0-3.52-0.03-5.27,0.02c-0.66,0.02-0.87-0.14-0.77-0.83c0.69-4.51,1.35-9.02,2.02-13.54
		c0.1-0.66,0.01-1.55,0.4-1.92c0.49-0.45,1.4-0.12,2.12-0.15C662.88,50.21,663.7,50.23,664.52,50.23z"/>
	<path class="st3" d="M713.63,50.28c1.2,0,2.4,0.04,3.6-0.02c0.68-0.03,0.85,0.17,0.76,0.84c-0.51,3.41-0.98,6.83-1.46,10.24
		c-0.22,1.59-0.46,3.18-0.66,4.78c-0.07,0.57-0.23,0.85-0.91,0.83c-1.75-0.07-3.51-0.04-5.27-0.05c-1.53-0.01-2.58-1.07-2.38-2.59
		c0.59-4.52,1.26-9.03,1.88-13.55c0.06-0.46,0.31-0.49,0.66-0.48C711.12,50.29,712.38,50.28,713.63,50.28z"/>
	<path class="st3" d="M697.61,66.83c-0.91,0-1.82,0.04-2.72-0.01c-1.62-0.08-2.48-1.12-2.26-2.76c0.38-2.9,0.8-5.79,1.2-8.69
		c0.2-1.45,0.44-2.89,0.59-4.34c0.06-0.61,0.29-0.77,0.87-0.76c2.4,0.03,4.8,0.04,7.2,0c0.7-0.01,0.84,0.19,0.74,0.85
		c-0.63,4.34-1.23,8.68-1.85,13.03c-0.09,0.64-0.24,1.27-0.26,1.91c-0.02,0.71-0.34,0.88-0.99,0.84c-0.85-0.05-1.7-0.01-2.55-0.01
		C697.61,66.86,697.61,66.85,697.61,66.83z"/>
	<path class="st3" d="M680.94,66.76c-0.94,0-1.88-0.02-2.81,0.01c-0.52,0.02-0.7-0.07-0.61-0.67c0.65-4.46,1.26-8.92,1.89-13.38
		c0.01-0.09,0.03-0.17,0.05-0.26c0.11-0.69-0.01-1.6,0.38-2.01c0.46-0.48,1.39-0.15,2.11-0.16c1.93-0.02,3.87,0.01,5.8-0.02
		c0.53-0.01,0.81,0.06,0.71,0.71c-0.64,4.34-1.21,8.69-1.87,13.03c-0.28,1.83-1.46,2.74-3.28,2.74
		C682.52,66.76,681.73,66.76,680.94,66.76z"/>
	<path class="st5" d="M664.8,47.28c1.29,0,2.57-0.02,3.86,0.01c0.3,0.01,0.85-0.27,0.81,0.42c-0.03,0.56-0.02,1.06-0.89,1.04
		c-2.6-0.06-5.2-0.02-7.8-0.03c-0.3,0-0.78,0.18-0.66-0.47c0.09-0.45-0.08-1.03,0.74-1C662.17,47.31,663.49,47.28,664.8,47.28z"/>
	<path class="st2" d="M737.9,47.36c-0.28,0.84-0.55,1.35-1.57,1.32c-2.85-0.09-5.71-0.03-8.61-0.03c0.22-0.98,0.7-1.34,1.71-1.32
		C732.23,47.41,735.03,47.36,737.9,47.36z"/>
	<path class="st2" d="M753.08,47.36c1.28,0,2.57-0.01,3.85,0.01c0.19,0,0.66-0.2,0.53,0.27c-0.09,0.34,0.22,0.98-0.52,1
		c-0.55,0.01-1.11,0-1.66,0c-2.04,0-4.09,0.01-6.13-0.02c-0.25,0-0.79,0.33-0.77-0.33c0.01-0.52,0.03-1.02,0.86-0.97
		C750.51,47.42,751.8,47.36,753.08,47.36z"/>
	<path class="st2" d="M780.08,48.65c-1.26,0-2.51,0.02-3.77-0.02c-0.26-0.01-0.8,0.31-0.77-0.33c0.02-0.5,0.04-0.99,0.85-0.96
		c1.95,0.07,3.91,0.02,5.87,0.02c0.5,0,1-0.04,1.49,0.01c0.32,0.04,0.88-0.32,0.88,0.44c0,0.68-0.29,0.88-0.96,0.85
		C782.48,48.61,781.28,48.65,780.08,48.65z"/>
	<path class="st4" d="M792.03,47.36c1.23,0,2.46-0.01,3.69,0.01c0.25,0.01,0.74-0.23,0.68,0.33c-0.05,0.43,0.06,0.99-0.77,0.96
		c-1.9-0.06-3.8-0.02-5.7-0.02c-0.64,0-1.29,0.02-1.93-0.01c-0.28-0.01-0.78,0.22-0.7-0.43c0.06-0.47,0.06-0.9,0.78-0.87
		C789.39,47.41,790.71,47.36,792.03,47.36z"/>
	<path class="st4" d="M811.29,23.66c-2.64,0-5.27,0-7.91,0c-1.91,0-3.58,1.24-3.92,3.12c-0.44,2.42-0.72,4.86-1.1,7.29
		c-0.1,0.63,0.21,0.65,0.69,0.64c4.25,0,8.5,0.01,12.75,0.02c4.88,0.02,8.65,2.77,9.87,7.18c0.27,0.99,0.35,2.01,0.43,3.03
		c0.04,0.54-0.11,0.79-0.72,0.78c-2.52-0.03-5.04-0.01-7.56-0.01c-0.34,0-0.57-0.01-0.72-0.44c-0.36-1.09-1.26-1.53-2.33-1.54
		c-4.42-0.04-8.85-0.03-13.27-0.05c-0.43,0-0.56,0.15-0.58,0.54c-0.01,0.29-0.12,0.58-0.12,0.87c-0.01,0.5-0.25,0.63-0.72,0.63
		c-2.55-0.02-5.1-0.02-7.65,0c-0.59,0.01-0.73-0.15-0.64-0.75c0.77-5.15,1.51-10.3,2.23-15.46c0.34-2.41,0.67-4.82,1.89-6.98
		c2.53-4.47,6.14-7.59,11.42-7.81c5.79-0.24,11.6-0.03,17.4-0.02c0.88,0,1.76,0.04,2.64,0.01c0.54-0.02,0.81,0.07,0.7,0.72
		c-0.27,1.59-0.43,3.19-0.72,4.77c-0.39,2.1-2.1,3.48-4.22,3.49c-2.61,0-5.22,0-7.82,0C811.29,23.67,811.29,23.66,811.29,23.66z"/>
	<path class="st2" d="M684.59,47.36c1.26,0,2.52-0.01,3.77,0.01c0.21,0,0.65-0.15,0.53,0.3c-0.09,0.34,0.21,0.98-0.54,0.97
		c-2.63,0-5.27,0-7.9,0c-0.34,0-0.5-0.11-0.42-0.46c0.08-0.37-0.05-0.86,0.61-0.84C681.96,47.38,683.28,47.36,684.59,47.36z"/>
	<path class="st2" d="M699.13,48.65c-1.23,0-2.46,0.01-3.69-0.01c-0.28,0-0.73,0.15-0.61-0.42c0.08-0.38-0.06-0.9,0.67-0.88
		c1.84,0.05,3.69,0.01,5.54,0.01c0.64,0,1.29-0.04,1.93,0.02c0.26,0.02,0.81-0.31,0.74,0.37c-0.05,0.46-0.01,0.97-0.8,0.92
		C701.65,48.59,700.39,48.65,699.13,48.65z"/>
	<path class="st2" d="M817.54,47.36c1.23,0,2.46,0,3.69,0c0.26,0,0.65-0.1,0.55,0.4c-0.07,0.35,0.13,0.89-0.55,0.89
		c-2.63-0.01-5.27-0.01-7.9,0c-0.39,0-0.41-0.2-0.37-0.5c0.05-0.41-0.01-0.82,0.64-0.8C814.91,47.39,816.23,47.36,817.54,47.36z"/>
	<path class="st4" d="M713.92,48.65c-1.26,0-2.51,0.01-3.77-0.01c-0.25,0-0.66,0.15-0.58-0.37c0.06-0.39-0.1-0.92,0.62-0.92
		c2.57,0.02,5.14,0,7.71,0.01c0.22,0,0.63-0.13,0.51,0.33c-0.09,0.35,0.2,0.96-0.56,0.96C716.55,48.64,715.23,48.65,713.92,48.65z"
		/>
	<g>
		<path class="st6" d="M677.58,18.06c-0.29,0-0.39,0.07-0.43,0.35l-0.1,0.76h1.7l-0.1,0.7h-1.7l-0.27,1.88h-0.99l0.5-3.58
			c0.08-0.58,0.47-0.91,1.07-0.91c0.69,0,1.43,0.01,2,0.08l-0.12,0.72H677.58z"/>
		<path class="st6" d="M684.4,17.29c0.24,0,0.37,0.15,0.34,0.38l-0.4,4.08h-0.93l0.39-3.69h-0.11l-1.05,2.78
			c-0.07,0.21-0.2,0.3-0.42,0.3h-0.65c-0.22,0-0.35-0.12-0.37-0.33l-0.32-2.75h-0.11l-0.64,3.69h-0.93l0.74-4.11
			c0.04-0.24,0.15-0.35,0.39-0.35h0.92c0.21,0,0.33,0.12,0.35,0.34l0.25,2.22c0.03,0.21,0.03,0.41,0.03,0.63h0.09
			c0.07-0.23,0.14-0.42,0.21-0.61l0.84-2.28c0.07-0.21,0.2-0.3,0.42-0.3L684.4,17.29z"/>
		<path class="st6" d="M688.15,17.29c0.37,0,0.5,0.23,0.36,0.54l-1.92,3.92h-0.98l1.6-3.25c0.06-0.14,0.15-0.28,0.26-0.41
			l-2.05,0.01l0.07-0.8H688.15z"/>
		<path class="st6" d="M692.1,18.44c-0.08,0.51-0.29,0.92-0.81,0.99l-0.01,0.03c0.59,0.06,0.7,0.58,0.61,1.22
			c-0.11,0.8-0.46,1.15-1.73,1.16c-1.27,0-1.67-0.41-1.57-1.23c0.08-0.61,0.3-1.11,0.94-1.16l0.01-0.03
			c-0.45-0.06-0.59-0.47-0.52-1.05c0.11-0.8,0.47-1.16,1.65-1.15C691.91,17.21,692.22,17.61,692.1,18.44z M689.54,20.48
			c-0.06,0.47,0.05,0.59,0.67,0.59c0.56,0,0.72-0.14,0.8-0.67c0.08-0.51-0.03-0.63-0.65-0.63C689.8,19.78,689.62,19.87,689.54,20.48
			z M689.88,18.56c-0.06,0.43,0.03,0.54,0.6,0.54c0.54,0,0.66-0.13,0.72-0.61c0.06-0.45-0.02-0.56-0.58-0.56
			C690.07,17.92,689.95,18.05,689.88,18.56z"/>
		<path class="st6" d="M695.83,20.26c-0.16,1.05-0.56,1.56-1.77,1.56c-1.28,0-1.58-0.61-1.33-2.3c0.29-2.02,0.89-2.32,2.07-2.32
			c0.3,0,0.61,0.02,1.13,0.12l-0.09,0.64c-0.34-0.01-0.53-0.01-0.97-0.01c-0.72,0-0.92,0.21-1.12,1.2c0.32-0.25,0.68-0.35,0.98-0.35
			C695.58,18.81,695.98,19.18,695.83,20.26z M694.46,19.53c-0.25,0-0.49,0.08-0.84,0.35c-0.15,0.99-0.08,1.2,0.48,1.2
			c0.59,0,0.71-0.28,0.8-0.87C694.98,19.68,694.93,19.53,694.46,19.53z"/>
		<path class="st6" d="M696.89,20.77c0.23,0,0.35,0.12,0.32,0.35l-0.05,0.31c-0.03,0.21-0.14,0.32-0.36,0.32h-0.24
			c-0.25,0-0.35-0.12-0.32-0.36l0.05-0.31c0.03-0.22,0.15-0.31,0.37-0.31H696.89z"/>
		<path class="st6" d="M701.48,17.37l-0.13,0.73c-0.42-0.03-0.7-0.03-1.24-0.03c-0.65,0-0.91,0.23-1.08,1.49
			c-0.16,1.11-0.04,1.42,0.61,1.42c0.61,0.01,0.96-0.01,1.35-0.06l0.04,0.74c-0.43,0.13-0.81,0.17-1.42,0.17
			c-1.38,0-1.84-0.67-1.6-2.35c0.25-1.73,0.77-2.27,2.15-2.27C700.76,17.21,701.08,17.26,701.48,17.37z"/>
		<path class="st6" d="M705.49,19.56c-0.24,1.77-0.81,2.28-2.15,2.28c-1.36,0-1.89-0.56-1.65-2.35c0.24-1.73,0.8-2.28,2.16-2.28
			C705.18,17.21,705.74,17.77,705.49,19.56z M702.73,19.56c-0.17,1.16-0.03,1.48,0.63,1.48c0.68,0,0.92-0.33,1.1-1.56
			c0.17-1.2,0.02-1.48-0.64-1.48C703.14,18,702.91,18.32,702.73,19.56z"/>
		<path class="st6" d="M711.04,17.29c0.24,0,0.37,0.15,0.34,0.38l-0.4,4.08h-0.93l0.39-3.69h-0.11l-1.05,2.78
			c-0.07,0.21-0.2,0.3-0.42,0.3h-0.65c-0.22,0-0.35-0.12-0.37-0.33l-0.32-2.75h-0.11l-0.64,3.69h-0.93l0.74-4.11
			c0.04-0.24,0.15-0.35,0.39-0.35h0.92c0.21,0,0.33,0.12,0.35,0.34l0.25,2.22c0.03,0.21,0.03,0.41,0.03,0.63h0.09
			c0.07-0.23,0.14-0.42,0.21-0.61l0.84-2.28c0.07-0.21,0.2-0.3,0.42-0.3L711.04,17.29z"/>
	</g>
</g>
<text transform="matrix(1 0 0 1 17.166 61.0625)" class="st7 st8 st9">FM786.COM</text>
</svg>
